<svg width="430" height="400" viewBox="0 0 430 400" fill="none" xmlns="http://www.w3.org/2000/svg">
<path d="M34.0957 99.8027C36.7235 97.5227 37.0056 93.5465 34.7289 90.9155C29.1124 84.4395 26.1467 76.7693 26.1467 68.735C26.1467 47.9686 46.1684 31.0733 70.7798 31.0733C95.3879 31.0733 115.41 47.9686 115.41 68.735C115.41 76.461 112.634 83.9014 107.379 90.2462C106.729 91.0336 106.276 91.9685 106.066 92.9691C104.515 100.367 104.249 107.171 105.269 113.26C101.559 111.557 98.8686 109.143 96.6345 105.606C95.0336 103.07 91.8678 102.014 89.0661 103.083C83.2823 105.285 77.1311 106.4 70.7798 106.4C65.8556 106.4 61.0199 105.724 56.4073 104.399C53.0643 103.434 49.5737 105.367 48.6125 108.71C47.648 112.053 49.5803 115.543 52.9233 116.504C58.6677 118.158 64.6778 118.998 70.7798 118.998C77.0163 118.998 83.115 118.125 88.9611 116.403C93.1866 121.376 98.5734 124.716 105.587 126.766C106.535 127.045 107.507 127.18 108.468 127.18C111.155 127.18 113.782 126.123 115.741 124.171C118.385 121.537 119.386 117.685 118.356 114.116C116.683 108.313 117.224 101.83 118.113 96.9945C124.592 88.6387 128.007 78.905 128.007 68.735C128.007 41.0202 102.333 18.4724 70.7765 18.4724C39.22 18.4724 13.549 41.0202 13.549 68.735C13.549 79.8433 17.5809 90.3643 25.2084 99.1663C27.4852 101.794 31.4646 102.079 34.0957 99.8027ZM70.5239 319.642C67.053 319.881 64.435 322.886 64.6712 326.357C64.7237 327.105 64.6253 328.545 63.3951 329.776C62.1681 331.003 60.7279 331.104 59.9799 331.048C56.5156 330.809 53.5007 333.43 53.2645 336.901C53.025 340.372 55.6429 343.38 59.1138 343.62C59.5042 343.646 59.8946 343.659 60.285 343.659C64.7795 343.659 69.1067 341.881 72.3053 338.682C75.7795 335.208 77.5773 330.402 77.2394 325.494C76.9999 322.023 73.9883 319.405 70.5239 319.642ZM381.739 37.6182H318.553C315.073 37.6182 312.255 40.4362 312.255 43.917C312.255 47.3978 315.073 50.2158 318.553 50.2158H381.739C385.219 50.2158 388.037 47.3978 388.037 43.917C388.037 40.4362 385.219 37.6182 381.739 37.6182ZM92.9307 75.0339C96.4082 75.0339 99.2295 72.2158 99.2295 68.735C99.2295 65.2543 96.4082 62.4362 92.9307 62.4362H48.6256C45.1482 62.4362 42.3268 65.2543 42.3268 68.735C42.3268 72.2158 45.1482 75.0339 48.6256 75.0339H92.9307ZM44.3182 345.063C41.8577 342.603 37.8717 342.603 35.4112 345.063C32.9507 347.521 32.9507 351.51 35.4079 353.97L39.0002 357.563C40.2305 358.793 41.8413 359.406 43.4554 359.406C45.0661 359.406 46.6769 358.793 47.9105 357.563C50.3677 355.102 50.3709 351.116 47.9105 348.656L44.3182 345.063ZM246.645 176.707H189.168C185.691 176.707 182.869 179.526 182.869 183.006V240.483C182.869 243.961 185.691 246.782 189.168 246.782H246.645C250.123 246.782 252.944 243.961 252.944 240.483V183.006C252.944 179.526 250.123 176.707 246.645 176.707ZM240.346 234.181H195.467V189.305H240.346V234.181ZM404.936 0.117188H295.356C281.538 0.117188 270.292 11.3599 270.292 25.1813V35.2266C269.429 35.1446 268.556 35.0954 267.681 35.0954C252.606 35.0954 240.346 47.3551 240.346 62.4297V134.64H195.467V62.4297C195.467 47.3551 183.207 35.0954 168.136 35.0954C153.065 35.0954 140.802 47.3551 140.802 62.4297V134.64H68.5916C53.5204 134.64 41.2573 146.9 41.2573 161.974C41.2573 177.045 53.5204 189.305 68.5916 189.305H140.802V234.184H68.5916C53.5204 234.184 41.2573 246.447 41.2573 261.519C41.2573 264.72 41.8118 267.827 42.8648 270.757C17.8336 280.33 0 304.587 0 332.948C0 369.655 29.8637 399.515 66.5675 399.515C103.275 399.515 133.138 369.655 133.138 332.948C133.138 316.046 126.793 300.601 116.377 288.85H140.802V361.06C140.802 376.131 153.065 388.391 168.136 388.391C183.207 388.391 195.467 376.131 195.467 361.06V288.85H240.346V361.06C240.346 376.131 252.606 388.391 267.681 388.391C282.752 388.391 295.012 376.131 295.012 361.06V288.85H309.253C309.092 290.536 309.01 292.222 309.01 293.912C309.01 323.844 333.362 348.193 363.295 348.193C366.91 348.193 370.525 347.835 374.042 347.13C377.454 346.444 379.662 343.121 378.976 339.713C378.291 336.304 374.974 334.093 371.559 334.779C368.859 335.323 366.08 335.595 363.295 335.595C340.307 335.595 321.608 316.896 321.608 293.912C321.608 292.222 321.716 290.533 321.923 288.85H337.991C337.663 290.503 337.476 292.196 337.476 293.912C337.476 308.146 349.057 319.727 363.291 319.727C377.529 319.727 389.11 308.146 389.11 293.912C389.11 289.476 387.995 285.218 385.905 281.442C390.206 277.407 393.204 272.003 394.195 265.931C401.032 273.473 404.979 283.377 404.979 293.912C404.979 304.203 401.196 314.084 394.333 321.738C392.01 324.326 392.227 328.309 394.815 330.632C396.019 331.711 397.522 332.243 399.018 332.243C400.747 332.243 402.466 331.534 403.709 330.15C412.652 320.183 417.576 307.313 417.576 293.912C417.576 274.356 407.144 256.463 390.229 246.788C385.364 239.213 376.873 234.181 367.222 234.181H295.012V189.305H367.222C382.293 189.305 394.556 177.042 394.556 161.971C394.556 146.9 382.293 134.637 367.222 134.637H295.012V87.707C295.126 87.7103 295.241 87.7168 295.356 87.7168C297.141 87.7168 298.597 89.1341 298.676 90.945C298.958 97.421 298.351 103.326 296.868 108.5C295.595 112.942 296.839 117.718 300.11 120.973C302.518 123.368 305.746 124.657 309.053 124.657C310.244 124.657 311.444 124.49 312.622 124.145C329.76 119.132 340.215 109.356 347.584 91.4535C348.519 89.1833 350.694 87.7168 353.128 87.7168H404.936C418.757 87.7168 430 76.4708 430 62.6527V25.1813C430 11.3599 418.757 0.117188 404.936 0.117188V0.117188ZM120.541 332.948C120.541 362.707 96.3294 386.918 66.5675 386.918C36.8088 386.918 12.5977 362.707 12.5977 332.948C12.5977 303.186 36.8088 278.975 66.5675 278.975C96.3294 278.975 120.541 303.186 120.541 332.948ZM363.291 307.133C356.005 307.133 350.074 301.201 350.074 293.912C350.074 292.153 350.418 290.444 351.084 288.85H367.222C369.915 288.85 372.517 288.453 374.977 287.724C375.978 289.607 376.512 291.72 376.512 293.915C376.512 301.201 370.581 307.133 363.291 307.133ZM367.222 147.237C375.348 147.237 381.958 153.848 381.958 161.971C381.958 170.097 375.348 176.707 367.222 176.707H288.713C285.235 176.707 282.414 179.526 282.414 183.006V240.483C282.414 243.961 285.235 246.782 288.713 246.782H367.222C375.348 246.782 381.958 253.392 381.958 261.515C381.958 269.641 375.348 276.252 367.222 276.252H288.713C285.235 276.252 282.414 279.073 282.414 282.551V361.06C282.414 369.186 275.803 375.796 267.681 375.796C259.554 375.796 252.944 369.186 252.944 361.06V282.551C252.944 279.073 250.123 276.252 246.645 276.252H189.168C185.691 276.252 182.869 279.073 182.869 282.551V361.06C182.869 369.186 176.259 375.796 168.136 375.796C160.01 375.796 153.399 369.186 153.399 361.06V282.551C153.399 279.073 150.578 276.252 147.101 276.252H101.408C91.2674 269.999 79.3324 266.38 66.5675 266.38C62.6471 266.38 58.812 266.741 55.0754 267.394C54.2716 265.557 53.855 263.572 53.855 261.515C53.855 253.392 60.4655 246.782 68.5916 246.782H147.101C150.578 246.782 153.399 243.961 153.399 240.483V183.006C153.399 179.526 150.578 176.707 147.101 176.707H68.5916C60.4655 176.707 53.855 170.097 53.855 161.971C53.855 153.848 60.4655 147.237 68.5916 147.237H147.101C150.578 147.237 153.399 144.416 153.399 140.939V62.4297C153.399 54.3035 160.01 47.693 168.136 47.693C176.259 47.693 182.869 54.3035 182.869 62.4297V140.939C182.869 144.416 185.691 147.237 189.168 147.237H246.645C250.123 147.237 252.944 144.416 252.944 140.939V62.4297C252.944 54.3035 259.554 47.693 267.681 47.693C268.566 47.693 269.436 47.7914 270.292 47.9424V62.6527C270.292 71.7401 275.157 79.7121 282.414 84.1081V140.939C282.414 144.416 285.235 147.237 288.713 147.237H367.222ZM417.402 62.6527C417.402 69.5257 411.812 75.1192 404.936 75.1192H353.128C345.573 75.1192 338.824 79.6465 335.934 86.6572C330.029 101.01 322.5 108.129 309.036 112.069C309.013 112.062 308.974 112.023 308.98 111.967C310.837 105.488 311.605 98.2313 311.261 90.3971C310.89 81.8314 303.902 75.1192 295.356 75.1192C288.483 75.1192 282.89 69.5257 282.89 62.6527V25.1813C282.89 18.3051 288.483 12.7148 295.356 12.7148H404.936C411.812 12.7148 417.402 18.3051 417.402 25.1813V62.6527ZM87.5931 301.788C85.1326 299.328 81.1433 299.328 78.6829 301.788C76.2257 304.249 76.2257 308.238 78.6829 310.695L82.2752 314.288C83.5054 315.518 85.1162 316.131 86.7303 316.131C88.3411 316.131 89.9519 315.518 91.1821 314.288C93.6426 311.827 93.6426 307.838 91.1821 305.381L87.5931 301.788Z" fill="#E5AB3D" fill-opacity="0.15"/>
</svg>
