<svg xmlns="http://www.w3.org/2000/svg" viewBox="0 0 50 9.04"><defs><style>.cls-1{fill:#31326b;}.cls-2{fill:#fabf31;}.cls-3{fill:#fff;}</style></defs><title>Asset 1</title><g id="Layer_2" data-name="Layer 2"><g id="Layer_1-2" data-name="Layer 1"><path class="cls-1" d="M16.41.88a2.18,2.18,0,0,1,.95.79,2.16,2.16,0,0,1,.33,1.2,2.16,2.16,0,0,1-.33,1.2,2.3,2.3,0,0,1-.95.78A3.56,3.56,0,0,1,15,5.12H13.9v1.6H12.17V.6H15A3.56,3.56,0,0,1,16.41.88Zm-.74,2.65a.84.84,0,0,0,.27-.66.85.85,0,0,0-.27-.67A1.24,1.24,0,0,0,14.86,2h-1V3.76h1A1.24,1.24,0,0,0,15.67,3.53Z"/><path class="cls-1" d="M22.23,2.44a2.08,2.08,0,0,1,.62,1.65V6.72H21.3V6.11a1.43,1.43,0,0,1-1.4.69A2.15,2.15,0,0,1,19,6.61a1.43,1.43,0,0,1-.61-.52,1.37,1.37,0,0,1-.21-.75,1.22,1.22,0,0,1,.52-1,2.7,2.7,0,0,1,1.59-.37h1c0-.5-.37-.76-1-.76a2.37,2.37,0,0,0-.69.11,1.94,1.94,0,0,0-.59.31l-.56-1.13a3.06,3.06,0,0,1,.95-.41,4.45,4.45,0,0,1,1.14-.14A2.74,2.74,0,0,1,22.23,2.44ZM20.87,5.61a.78.78,0,0,0,.32-.41V4.79h-.72c-.49,0-.73.16-.73.48a.43.43,0,0,0,.17.35.69.69,0,0,0,.45.13A.85.85,0,0,0,20.87,5.61Z"/><path class="cls-1" d="M26.14,2.07a2.45,2.45,0,0,1,.93-.16V3.4a2.76,2.76,0,0,0-.38,0,1.16,1.16,0,0,0-.83.28,1.2,1.2,0,0,0-.3.89V6.72H23.9V2h1.58v.56A1.61,1.61,0,0,1,26.14,2.07Z"/><path class="cls-1" d="M31.54,2.44a2.08,2.08,0,0,1,.62,1.65V6.72H30.61V6.11a1.43,1.43,0,0,1-1.4.69,2.15,2.15,0,0,1-.95-.19,1.43,1.43,0,0,1-.61-.52,1.37,1.37,0,0,1-.21-.75,1.22,1.22,0,0,1,.52-1,2.72,2.72,0,0,1,1.59-.37h.95c0-.5-.37-.76-1-.76a2.37,2.37,0,0,0-.69.11,1.94,1.94,0,0,0-.59.31l-.56-1.13a3.06,3.06,0,0,1,1-.41,4.45,4.45,0,0,1,1.14-.14A2.74,2.74,0,0,1,31.54,2.44ZM30.18,5.61a.78.78,0,0,0,.32-.41V4.79h-.72c-.48,0-.73.16-.73.48a.43.43,0,0,0,.17.35.69.69,0,0,0,.45.13A.85.85,0,0,0,30.18,5.61Z"/><path class="cls-2" d="M37.52.88a2.13,2.13,0,0,1,.95.79,2.16,2.16,0,0,1,.33,1.2,2.16,2.16,0,0,1-.33,1.2,2.24,2.24,0,0,1-.95.78,3.49,3.49,0,0,1-1.44.27H35v1.6H33.28V.6h2.8A3.49,3.49,0,0,1,37.52.88Zm-.74,2.65a.84.84,0,0,0,.27-.66.85.85,0,0,0-.27-.67A1.23,1.23,0,0,0,36,2H35V3.76h1A1.23,1.23,0,0,0,36.78,3.53Z"/><path class="cls-2" d="M43.34,2.44A2.08,2.08,0,0,1,44,4.09V6.72H42.41V6.11A1.42,1.42,0,0,1,41,6.8a2.18,2.18,0,0,1-.95-.19,1.43,1.43,0,0,1-.61-.52,1.45,1.45,0,0,1-.2-.75,1.21,1.21,0,0,1,.51-1,2.75,2.75,0,0,1,1.59-.37h.95c0-.5-.37-.76-1-.76a2.42,2.42,0,0,0-.69.11,1.94,1.94,0,0,0-.59.31l-.56-1.13a3,3,0,0,1,1-.41,4.32,4.32,0,0,1,1.13-.14A2.74,2.74,0,0,1,43.34,2.44ZM42,5.61a.78.78,0,0,0,.32-.41V4.79h-.72q-.72,0-.72.48a.42.42,0,0,0,.16.35.7.7,0,0,0,.46.13A.84.84,0,0,0,42,5.61Z"/><path class="cls-2" d="M50,1.85,46.94,9H45.33l1.12-2.48-2-4.71h1.67L47.26,4.9l1.12-3.05Z"/><path class="cls-1" d="M8.49,0H.92A.9.9,0,0,0,0,.88V7.73a.9.9,0,0,0,.92.87H3.24v-2H1.58a1.57,1.57,0,0,1,0-.27,1.17,1.17,0,0,1,.21-.43,1.09,1.09,0,0,1,.37-.31,1.66,1.66,0,0,1,1.1-.17v-2a1.06,1.06,0,0,1,.32-.56,1.34,1.34,0,0,1,1-.35c0,2,0,4,0,6.05H8.49a.9.9,0,0,0,.93-.87V.88A.91.91,0,0,0,8.49,0ZM7.83,4.92a2,2,0,0,1-.27.77,1.92,1.92,0,0,1-.83.75,2.5,2.5,0,0,1-.62.17,5,5,0,0,1-1.35,0V5.37a1.5,1.5,0,0,0,1.14,0,1,1,0,0,0,.61-.56.82.82,0,0,0,0-.48A.86.86,0,0,0,6.29,4a.87.87,0,0,0-.22-.16L5.9,3.75a2.45,2.45,0,0,0-.37-.11,1.22,1.22,0,0,0-.33,0,1.64,1.64,0,0,0-.44.11V2.55A2.82,2.82,0,0,1,6,2.55a2.54,2.54,0,0,1,.79.32A2.07,2.07,0,0,1,7.78,4,2,2,0,0,1,7.83,4.92Z"/><path class="cls-3" d="M3.24,8.6v-2H1.58a1.57,1.57,0,0,1,0-.27,1.17,1.17,0,0,1,.21-.43,1.09,1.09,0,0,1,.37-.31,1.66,1.66,0,0,1,1.1-.17v-2a1.06,1.06,0,0,1,.32-.56,1.34,1.34,0,0,1,1-.35c0,2,0,4,0,6.05Z"/><path class="cls-1" d="M4.58,8.6a5.74,5.74,0,0,1-.6,0c-.27,0-.52,0-.74,0Z"/><path class="cls-3" d="M7.83,4.92a2,2,0,0,1-.27.77,1.92,1.92,0,0,1-.83.75,2.5,2.5,0,0,1-.62.17,5,5,0,0,1-1.35,0V5.37a1.5,1.5,0,0,0,1.14,0,1,1,0,0,0,.61-.56.82.82,0,0,0,0-.48A.86.86,0,0,0,6.29,4a.87.87,0,0,0-.22-.16L5.9,3.75a2.45,2.45,0,0,0-.37-.11,1.22,1.22,0,0,0-.33,0,1.64,1.64,0,0,0-.44.11V2.55A2.82,2.82,0,0,1,6,2.55a2.54,2.54,0,0,1,.79.32A2.07,2.07,0,0,1,7.78,4,2,2,0,0,1,7.83,4.92Z"/></g></g></svg>