<svg width="253" height="253" viewBox="0 0 253 253" fill="none" xmlns="http://www.w3.org/2000/svg">
<circle cx="126.5" cy="126.5" r="125" stroke="#E5AB3D" stroke-width="3"/>
<circle cx="126.5" cy="126.5" r="109.5" stroke="#E5AB3D" stroke-width="2"/>
<circle cx="126.5" cy="126.5" r="92" stroke="#E5AB3D"/>
<circle cx="127" cy="127" r="78" fill="#E5AB3D"/>
<path d="M163.973 122.987L103.343 92.6719C102.526 92.293 101.626 92.1246 100.726 92.1822C99.8266 92.2397 98.9556 92.5214 98.1927 93.0015C97.4297 93.4816 96.7989 94.1449 96.3578 94.931C95.9166 95.7171 95.6791 96.6011 95.6668 97.5025V158.106C95.6592 159.032 95.8903 159.943 96.338 160.753C96.7856 161.563 97.4346 162.243 98.2222 162.729C99.0098 163.215 99.9093 163.489 100.834 163.525C101.758 163.562 102.677 163.359 103.5 162.937L163.973 132.622C164.869 132.172 165.622 131.482 166.149 130.629C166.675 129.776 166.954 128.794 166.954 127.791C166.954 126.789 166.675 125.806 166.149 124.953C165.622 124.1 164.869 123.41 163.973 122.961V122.987Z" fill="#31326C"/>
</svg>
