<svg width="50" height="50" viewBox="0 0 50 50" fill="none" xmlns="http://www.w3.org/2000/svg">
<rect width="50" height="50" rx="12" fill="#31326C"/>
<path d="M26.2 15.1588C20.866 15.1588 16.5268 19.4332 16.3972 24.754V25H13.5508L17.8636 29.6728L22.0564 25H18.85V24.754C18.9784 20.7904 22.2196 17.62 26.2 17.62C30.2632 17.62 33.5572 20.9248 33.5572 25C33.5572 29.0752 30.2632 32.38 26.2 32.38C24.6334 32.3809 23.1078 31.8791 21.8476 30.9484L20.1604 32.7532C21.8824 34.1067 24.0098 34.8413 26.2 34.8388C31.618 34.8388 36.0088 30.4348 36.0088 25C36.0088 19.5652 31.618 15.1588 26.2 15.1588ZM25 19V25C25.0014 25.318 25.1277 25.6227 25.3516 25.8484L29.1916 29.6884C29.5312 29.4688 29.8516 29.2216 30.136 28.9348L27.4 26.2V19H25Z" fill="white"/>
</svg>
