<svg width="38" height="38" viewBox="0 0 38 38" fill="none" xmlns="http://www.w3.org/2000/svg">
<circle cx="19" cy="19" r="18" fill="#31326C" stroke="#31326C" stroke-width="2"/>
<path d="M28.2754 11.5084C25.1115 13.6762 22.4347 15.7398 19.9841 18.4321C18.9033 19.6196 17.7015 21.0173 16.9158 22.3369C16.4673 23.0367 15.6588 24.1301 15.3832 25.1813C13.8757 24.071 12.2565 22.8108 10.5997 21.8236C9.41885 21.1203 6.0176 22.5543 7.4021 23.379C9.88347 24.8565 11.9471 26.6968 14.3606 28.2403C15.3701 28.8851 17.6073 27.4848 18.1331 26.8972C19.8588 24.9616 20.0947 22.5955 21.3525 20.4841C23.2728 17.255 26.6786 14.6025 30.0412 12.299C32.2691 10.654 29.9681 10.3506 28.2787 11.5084" fill="white"/>
</svg>
