<svg width="50" height="50" viewBox="0 0 50 50" fill="none" xmlns="http://www.w3.org/2000/svg">
<rect width="50" height="50" rx="12" fill="#31326C"/>
<path d="M20.72 27.456L22.481 26.948L33.084 16.218C33.1676 16.1323 33.2142 16.0172 33.2136 15.8974C33.2131 15.7777 33.1654 15.6629 33.081 15.578L32.446 14.936C32.405 14.8939 32.3559 14.8603 32.3018 14.8373C32.2477 14.8143 32.1895 14.8023 32.1306 14.802C32.0718 14.8017 32.0135 14.8132 31.9591 14.8357C31.9048 14.8582 31.8554 14.8913 31.814 14.933L21.239 25.635L20.719 27.455L20.72 27.456ZM33.703 13.664L34.338 14.307C35.214 15.194 35.222 16.625 34.354 17.503L23.428 28.561L19.664 29.645C19.4342 29.7094 19.1883 29.6799 18.9802 29.5631C18.7721 29.4463 18.6188 29.2517 18.554 29.022C18.5058 28.8569 18.5051 28.6815 18.552 28.516L19.647 24.676L30.544 13.647C30.7512 13.4384 30.9979 13.2731 31.2696 13.1608C31.5414 13.0485 31.8328 12.9914 32.1269 12.9929C32.4209 12.9944 32.7117 13.0544 32.9823 13.1695C33.2529 13.2845 33.4979 13.4523 33.703 13.663V13.664ZM22.184 14.817C22.68 14.817 23.082 15.224 23.082 15.726C23.0828 15.8447 23.0602 15.9624 23.0155 16.0723C22.9708 16.1822 22.9048 16.2822 22.8214 16.3667C22.738 16.4511 22.6388 16.5182 22.5294 16.5643C22.42 16.6103 22.3027 16.6344 22.184 16.635H18.592C17.6 16.635 16.796 17.449 16.796 18.452V29.358C16.796 30.362 17.6 31.176 18.592 31.176H29.368C30.36 31.176 31.165 30.362 31.165 29.358V25.723C31.165 25.221 31.567 24.814 32.063 24.814C32.559 24.814 32.961 25.221 32.961 25.724V29.358C32.961 31.366 31.352 32.994 29.368 32.994H18.592C16.608 32.994 15 31.366 15 29.358V18.452C15 16.445 16.608 14.817 18.592 14.817H22.184Z" fill="white"/>
</svg>
