<svg width="50" height="50" viewBox="0 0 50 50" fill="none" xmlns="http://www.w3.org/2000/svg">
<rect width="50" height="50" rx="12" fill="#31326C"/>
<path d="M18.6 13.8H34.6C35.0244 13.8 35.4313 13.9686 35.7314 14.2686C36.0315 14.5687 36.2 14.9757 36.2 15.4V26.6C36.2 27.0244 36.0315 27.4313 35.7314 27.7314C35.4313 28.0314 35.0244 28.2 34.6 28.2H23.4V29.8H28.2V33H23.4V34.6H32.2C32.4122 34.6 32.6157 34.5157 32.7657 34.3657C32.9157 34.2157 33 34.0122 33 33.8C33 33.5878 32.9157 33.3844 32.7657 33.2343C32.6157 33.0843 32.4122 33 32.2 33H29.8V29.8H34.6C35.4487 29.8 36.2626 29.4629 36.8628 28.8628C37.4629 28.2626 37.8 27.4487 37.8 26.6V15.4C37.8 14.5513 37.4629 13.7374 36.8628 13.1373C36.2626 12.5372 35.4487 12.2 34.6 12.2H18.6C17.7513 12.2 16.9374 12.5372 16.3373 13.1373C15.7372 13.7374 15.4 14.5513 15.4 15.4V20.2H17V15.4C17 14.9757 17.1686 14.5687 17.4687 14.2686C17.7687 13.9686 18.1757 13.8 18.6 13.8Z" fill="white"/>
<path d="M16.2 33C15.9879 33 15.7844 33.0843 15.6343 33.2343C15.4843 33.3843 15.4 33.5878 15.4 33.8C15.4 34.0122 15.4843 34.2157 15.6343 34.3657C15.7844 34.5157 15.9879 34.6 16.2 34.6H17.8C18.0122 34.6 18.2157 34.5157 18.3657 34.3657C18.5157 34.2157 18.6 34.0122 18.6 33.8C18.6 33.5878 18.5157 33.3843 18.3657 33.2343C18.2157 33.0843 18.0122 33 17.8 33H16.2Z" fill="white"/>
<path d="M12.2 24.2C12.2 23.5635 12.4529 22.953 12.903 22.5029C13.353 22.0528 13.9635 21.8 14.6 21.8H19.4C20.0365 21.8 20.647 22.0528 21.0971 22.5029C21.5472 22.953 21.8 23.5635 21.8 24.2V35.4C21.8 36.0365 21.5472 36.647 21.0971 37.097C20.647 37.5471 20.0365 37.8 19.4 37.8H14.6C13.9635 37.8 13.353 37.5471 12.903 37.097C12.4529 36.647 12.2 36.0365 12.2 35.4V24.2ZM14.6 23.4C14.3878 23.4 14.1844 23.4843 14.0343 23.6343C13.8843 23.7843 13.8 23.9878 13.8 24.2V35.4C13.8 35.6122 13.8843 35.8156 14.0343 35.9657C14.1844 36.1157 14.3878 36.2 14.6 36.2H19.4C19.6122 36.2 19.8157 36.1157 19.9657 35.9657C20.1157 35.8156 20.2 35.6122 20.2 35.4V24.2C20.2 23.9878 20.1157 23.7843 19.9657 23.6343C19.8157 23.4843 19.6122 23.4 19.4 23.4H14.6Z" fill="white"/>
</svg>
